<?xml version="1.0" encoding="UTF-8" standalone="no"?>
<svg
   viewBox="0 0 288 384"
   height="384"
   width="288"
   xml:space="preserve"
   id="svg2"
   version="1.1"
   sodipodi:docname="icon.svg"
   inkscape:export-filename="D:\github\kevinCefalu\psi-tab-mgr\src\images\icon-128.png"
   inkscape:export-xdpi="41.560001"
   inkscape:export-ydpi="41.560001"
   inkscape:version="1.4 (86a8ad7, 2024-10-11)"
   xmlns:inkscape="http://www.inkscape.org/namespaces/inkscape"
   xmlns:sodipodi="http://sodipodi.sourceforge.net/DTD/sodipodi-0.dtd"
   xmlns="http://www.w3.org/2000/svg"
   xmlns:svg="http://www.w3.org/2000/svg"
   xmlns:rdf="http://www.w3.org/1999/02/22-rdf-syntax-ns#"
   xmlns:cc="http://creativecommons.org/ns#"
   xmlns:dc="http://purl.org/dc/elements/1.1/"><title
   id="title1">PsiBit Engineering</title><sodipodi:namedview
   id="namedview1"
   pagecolor="#ffffff"
   bordercolor="#000000"
   borderopacity="0.25"
   inkscape:showpageshadow="2"
   inkscape:pageopacity="0.0"
   inkscape:pagecheckerboard="0"
   inkscape:deskcolor="#d1d1d1"
   inkscape:zoom="3.1354167"
   inkscape:cx="143.84053"
   inkscape:cy="192"
   inkscape:window-width="2560"
   inkscape:window-height="1417"
   inkscape:window-x="1432"
   inkscape:window-y="-8"
   inkscape:window-maximized="1"
   inkscape:current-layer="svg2" />
    <metadata
   id="metadata8">
        <rdf:RDF>
            <cc:Work
   rdf:about="">
                <dc:format>image/svg+xml</dc:format>
                <dc:type
   rdf:resource="http://purl.org/dc/dcmitype/StillImage" />
            <dc:title>PsiBit Engineering</dc:title></cc:Work>
        </rdf:RDF>
    </metadata>
    <defs
   id="defs6">
        <clipPath
   id="clipPath18"
   clipPathUnits="userSpaceOnUse">
            <path
   id="path16"
   d="M 0,288 H 216 V 0 H 0 Z" />
        </clipPath>
    </defs>
    <g
   transform="matrix(1.3333333,0,0,-1.3333333,0,384)"
   id="g10">
        <g
   id="g12">
            <g
   clip-path="url(#clipPath18)"
   id="g14">
                <g
   transform="translate(123.9961,76.6113)"
   id="g20">
                    <path
   id="path22"
   style="fill:#323e48;fill-opacity:1;fill-rule:nonzero;stroke:none"
   d="m 0,0 -0.114,-39.58 c -0.01,-3.32 -3.9,-5.11 -6.428,-2.959 l -24.047,20.465 c -0.87,0.741 -1.372,1.827 -1.372,2.97 V 0 h -15.935 c -20.504,0 -37.21,16.676 -37.21,37.211 l 0.028,56.351 c 0.001,2.661 2.61,4.54 5.134,3.697 l 19.963,-6.662 c 1.593,-0.531 2.667,-2.022 2.666,-3.701 l -0.03,-49.685 c 0,-5.774 3.737,-9.481 9.449,-9.481 h 15.935 v 68.548 c 0,2.154 1.746,3.9 3.899,3.9 h 24.163 c 2.153,0 3.899,-1.746 3.899,-3.9 V 27.73 h 15.934 c 5.713,0 9.45,3.707 9.45,9.481 l -0.03,49.685 c 0,1.679 1.073,3.17 2.665,3.702 l 19.931,6.658 c 2.526,0.844 5.134,-1.034 5.136,-3.696 L 53.114,37.211 C 53.114,16.676 36.438,0 15.934,0 Z" />
                </g>
                <g
   transform="translate(92.0039,254.8647)"
   id="g24">
                    <path
   id="path26"
   style="fill:#00b551;fill-opacity:1;fill-rule:nonzero;stroke:none"
   d="m 0,0 h 31.961 15.935 c 20.504,0 37.21,-16.675 37.21,-37.21 l -0.028,-28.074 c -0.002,-1.676 -1.075,-3.164 -2.665,-3.695 L 62.452,-75.64 c -2.526,-0.843 -5.136,1.038 -5.134,3.702 l 0.027,34.728 c 0,5.774 -3.737,9.48 -9.449,9.48 H 31.961 0 -15.934 c -5.713,0 -9.449,-3.706 -9.449,-9.48 l 0.026,-34.726 c 0.002,-2.664 -2.608,-4.546 -5.135,-3.702 l -19.93,6.659 c -1.59,0.531 -2.662,2.018 -2.664,3.694 l -0.028,28.075 c 0,20.535 16.676,37.21 37.18,37.21 z" />
                </g>
            </g>
        </g>
    </g>
</svg>
